<?xml version="1.0" encoding="UTF-8" standalone="no"?>
<svg width="60px" height="60px" viewBox="0 0 60 60" version="1.1" xmlns="http://www.w3.org/2000/svg" xmlns:xlink="http://www.w3.org/1999/xlink">
    <!-- Generator: Sketch 3.8.1 (29687) - http://www.bohemiancoding.com/sketch -->
    <title>_Assets/hashs_icon</title>
    <desc>Created with Sketch.</desc>
    <defs></defs>
    <g id="Assets" stroke="none" stroke-width="1" fill="none" fill-rule="evenodd">
        <g id="_Assets/hashs_icon">
            <path d="M20.918543,0 L39.0814336,0 C45.1048711,0 48.1164141,0 51.358582,1.02509766 C54.8982305,2.31351563 57.6865313,5.10175781 58.9750078,8.64152344 C59.9999883,11.8835156 59.9999883,14.8951172 59.9999883,20.9185547 L59.9999883,39.0814453 C59.9999883,45.1048828 59.9999883,48.1164258 58.9750078,51.3585937 C57.6865313,54.8982422 54.8982305,57.6864844 51.358582,58.9747852 C48.1164141,60 45.1048711,60 39.0814336,60 L20.918543,60 C14.8951055,60 11.8835039,60 8.64151172,58.9747852 C5.10174609,57.6864844 2.31350391,54.8982422 1.02508594,51.3585937 C-1.171875e-05,48.1164258 -1.171875e-05,45.1048828 -1.171875e-05,39.0814453 L-1.171875e-05,20.9185547 C-1.171875e-05,14.8951172 -1.171875e-05,11.8835156 1.02508594,8.64152344 C2.31350391,5.10175781 5.10174609,2.31351563 8.64151172,1.02509766 C11.8835039,0 14.8951055,0 20.918543,0" id="Fill-1" fill="#B3A4FF"></path>
            <path d="M42.8320312,13.8867188 L21.3867187,13.8867188 C19.8333984,13.8867188 17.9900977,15.0022266 17.2695703,16.3783008 L11.4414258,27.508418 C10.7208398,28.8844922 10.7208398,31.1155078 11.4414258,32.491582 L17.2695703,43.6216992 C17.9900977,44.9977734 19.8333984,46.1132812 21.3867187,46.1132812 L42.8320312,46.1132812 C44.6442187,46.1132812 46.1132812,44.6442187 46.1132812,42.8320312 L46.1132812,17.1679688 C46.1132812,15.3557812 44.6442187,13.8867188 42.8320312,13.8867188 M42.8320312,16.6992188 C43.0904883,16.6992188 43.3007812,16.9095117 43.3007812,17.1679688 L43.3007812,42.8320312 C43.3007812,43.0904883 43.0904883,43.3007812 42.8320312,43.3007812 L21.3867187,43.3007812 C21.1974609,43.3007812 20.8412109,43.2007617 20.4720117,42.9773438 C20.1027539,42.7538672 19.8489258,42.4846875 19.7611523,42.3169922 L13.9330078,31.186875 C13.6425586,30.6322852 13.6425586,29.3677148 13.9330078,28.813125 L19.7611523,17.6829492 C19.8489258,17.5153125 20.1027539,17.2461328 20.4720117,17.0226562 C20.8412109,16.7992383 21.1974609,16.6992188 21.3867187,16.6992188 L42.8320312,16.6992188" id="Fill-7" fill="#FFFFFF"></path>
        </g>
    </g>
</svg>