<?xml version="1.0" encoding="UTF-8" standalone="no"?>
<svg width="39px" height="48px" viewBox="0 0 39 48" version="1.1" xmlns="http://www.w3.org/2000/svg" xmlns:xlink="http://www.w3.org/1999/xlink">
    <!-- Generator: Sketch 3.7.1 (28215) - http://www.bohemiancoding.com/sketch -->
    <title>_Assets/apple_icon</title>
    <desc>Created with Sketch.</desc>
    <defs></defs>
    <g id="Assets" stroke="none" stroke-width="1" fill="none" fill-rule="evenodd">
        <g id="_Assets/apple_icon" fill="#FFFFFF">
            <path d="M32.2363077,25.4473846 C32.1827692,19.4972308 37.1083077,16.6024615 37.3335385,16.4676923 C34.544,12.4006154 30.2203077,11.8449231 28.7009231,11.8006154 C25.0695385,11.4184615 21.5470769,13.9735385 19.6972308,13.9735385 C17.8104615,13.9735385 14.9618462,11.8375385 11.8916923,11.9003077 C7.94092308,11.9612308 4.24492308,14.2486154 2.21784615,17.8006154 C-1.96553846,25.0430769 1.15446154,35.6861538 5.16246154,41.5403077 C7.16738462,44.4073846 9.51015385,47.6086154 12.5766154,47.496 C15.5766154,47.3723077 16.6972308,45.5833846 20.3175385,45.5833846 C23.9046154,45.5833846 24.9569231,47.496 28.0843077,47.424 C31.304,47.3723077 33.3310769,44.544 35.2658462,41.6510769 C37.5827692,38.3649231 38.5132308,35.1286154 38.5501538,34.9624615 C38.4744615,34.9366154 32.2972308,32.5790769 32.2363077,25.4473846 L32.2363077,25.4473846 Z" id="Shape"></path>
            <path d="M26.3286154,7.94953846 C27.9421538,5.93169231 29.0461538,3.18646154 28.7396923,0.400615385 C26.4043077,0.504 23.4836923,2.016 21.8018462,3.98953846 C20.3138462,5.72861538 18.9846154,8.57907692 19.328,11.2596923 C21.9513846,11.4553846 24.6449231,9.936 26.3286154,7.94953846 L26.3286154,7.94953846 Z" id="Shape"></path>
        </g>
    </g>
</svg>