<?xml version="1.0" encoding="UTF-8" standalone="no"?>
<svg width="60px" height="60px" viewBox="0 0 60 60" version="1.1" xmlns="http://www.w3.org/2000/svg" xmlns:xlink="http://www.w3.org/1999/xlink">
    <!-- Generator: Sketch 3.8.1 (29687) - http://www.bohemiancoding.com/sketch -->
    <title>_Assets/hashs_icon</title>
    <desc>Created with Sketch.</desc>
    <defs></defs>
    <g id="Assets" stroke="none" stroke-width="1" fill="none" fill-rule="evenodd">
        <g id="_Assets/hashs_icon">
            <path d="M20.918543,0 L39.0814336,0 C45.1048711,0 48.1164141,0 51.358582,1.02509766 C54.8982305,2.31351563 57.6865313,5.10175781 58.9750078,8.64152344 C59.9999883,11.8835156 59.9999883,14.8951172 59.9999883,20.9185547 L59.9999883,39.0814453 C59.9999883,45.1048828 59.9999883,48.1164258 58.9750078,51.3585937 C57.6865313,54.8982422 54.8982305,57.6864844 51.358582,58.9747852 C48.1164141,60 45.1048711,60 39.0814336,60 L20.918543,60 C14.8951055,60 11.8835039,60 8.64151172,58.9747852 C5.10174609,57.6864844 2.31350391,54.8982422 1.02508594,51.3585937 C-1.171875e-05,48.1164258 -1.171875e-05,45.1048828 -1.171875e-05,39.0814453 L-1.171875e-05,20.9185547 C-1.171875e-05,14.8951172 -1.171875e-05,11.8835156 1.02508594,8.64152344 C2.31350391,5.10175781 5.10174609,2.31351563 8.64151172,1.02509766 C11.8835039,0 14.8951055,0 20.918543,0" id="Fill-1" fill="#B3A4FF"></path>
            <path d="M42.8320195,13.8867188 L21.386707,13.8867188 C19.8334453,13.8867188 17.9900859,15.0022266 17.2695586,16.3783008 L11.4414141,27.508418 C10.7208281,28.8844922 10.7208281,31.1155078 11.4414141,32.491582 L17.2695586,43.6216992 C17.9900859,44.9977734 19.8334453,46.1132812 21.386707,46.1132812 L42.8320195,46.1132812 C44.644207,46.1132812 46.1132695,44.6442187 46.1132695,42.8320312 L46.1132695,17.1679688 C46.1132695,15.3557812 44.644207,13.8867188 42.8320195,13.8867188 M42.8320195,15.9960938 C43.4781914,15.9960938 44.0038945,16.5217969 44.0038945,17.1679688 L44.0038945,42.8320312 C44.0038945,43.4782031 43.4781914,44.0039062 42.8320195,44.0039062 L21.386707,44.0039062 C21.0257695,44.0039062 20.5477617,43.845 20.107957,43.5788672 C19.6681523,43.3127344 19.3056328,42.9629297 19.1382305,42.6431836 L13.3100859,31.5130664 C12.9102422,30.7494727 12.9102422,29.2505273 13.3100859,28.4869336 L19.1382305,17.3568164 C19.3056328,17.0370703 19.6681523,16.6872656 20.107957,16.4211328 C20.5477617,16.155 21.0257695,15.9960938 21.386707,15.9960938 L42.8320195,15.9960938" id="Fill-4" fill="#FFFFFF"></path>
        </g>
    </g>
</svg>