<?xml version="1.0" encoding="UTF-8" standalone="no"?>
<svg width="24px" height="24px" viewBox="0 0 24 24" version="1.1" xmlns="http://www.w3.org/2000/svg" xmlns:xlink="http://www.w3.org/1999/xlink">
    <!-- Generator: Sketch 3.7.1 (28215) - http://www.bohemiancoding.com/sketch -->
    <title>_Assets/instagram_icon</title>
    <desc>Created with Sketch.</desc>
    <defs></defs>
    <g id="Assets" stroke="none" stroke-width="1" fill="none" fill-rule="evenodd">
        <path d="M21,21.75 L3,21.75 C2.586,21.75 2.25,21.414 2.25,21 L2.25,9.75 L5.25,9.75 C4.85925,10.3125 4.72725,11.36175 4.72725,12.02775 C4.72725,16.044 8.0025,19.31175 12.02775,19.31175 C16.05375,19.31175 19.329,16.044 19.329,12.02775 C19.329,11.36175 19.2345,10.32825 18.75,9.75 L21.75,9.75 L21.75,21 C21.75,21.414 21.414,21.75 21,21.75 M12.02775,7.4235 C14.577,7.4235 16.64325,9.48525 16.64325,12.02775 C16.64325,14.571 14.577,16.63275 12.02775,16.63275 C9.47925,16.63275 7.413,14.571 7.413,12.02775 C7.413,9.48525 9.47925,7.4235 12.02775,7.4235 M18,3 L20.25,3 C20.664,3 21,3.336 21,3.75 L21,6 C21,6.414 20.664,6.75 20.25,6.75 L18,6.75 C17.586,6.75 17.25,6.414 17.25,6 L17.25,3.75 C17.25,3.336 17.586,3 18,3 M21.147,0 L2.853,0 C1.27725,0 0,1.27425 0,2.84625 L0,21.15375 C0,22.72575 1.27725,24 2.853,24 L21.147,24 C22.72275,24 24,22.72575 24,21.15375 L24,2.84625 C24,1.27425 22.72275,0 21.147,0" id="_Assets/instagram_icon" fill="#C6C6C6"></path>
    </g>
</svg>