<?xml version="1.0" encoding="UTF-8" standalone="no"?>
<svg width="24px" height="20px" viewBox="0 0 24 20" version="1.1" xmlns="http://www.w3.org/2000/svg" xmlns:xlink="http://www.w3.org/1999/xlink">
    <!-- Generator: Sketch 3.7.2 (28276) - http://www.bohemiancoding.com/sketch -->
    <title>_Assets/twitter_icon</title>
    <desc>Created with Sketch.</desc>
    <defs></defs>
    <g id="Assets" stroke="none" stroke-width="1" fill="none" fill-rule="evenodd">
        <path d="M24,2.36764175 C23.1181545,2.76923077 22.1686915,3.04080895 21.1727415,3.1621524 C22.189822,2.53810039 22.970241,1.54857349 23.3379115,0.369808595 C22.3856315,0.947634525 21.3333335,1.36800289 20.209192,1.593355 C19.3132595,0.612495485 18.032752,0 16.6156015,0 C13.8982215,0 11.693608,2.26074395 11.693608,5.04875405 C11.693608,5.4445648 11.735869,5.82881905 11.820391,6.19862765 C7.728121,5.9877212 4.100722,3.9797761 1.6707165,0.92163236 C1.2466985,1.66991694 1.004402,2.53810039 1.004402,3.4626219 C1.004402,5.21343445 1.8735695,6.7591188 3.1949285,7.66486095 C2.389153,7.64030335 1.6284555,7.41061755 0.96355,7.0350307 L0.96355,7.097147 C0.96355,9.5442398 2.661032,11.5854099 4.91495,12.0476707 C4.502201,12.166125 4.066913,12.2253521 3.6175385,12.2253521 C3.300581,12.2253521 2.9906675,12.1950162 2.6906145,12.1357891 C3.3174855,14.140845 5.134707,15.6013001 7.290016,15.6403033 C5.605212,16.9953052 3.4808945,17.8028169 1.1748545,17.8028169 C0.7776015,17.8028169 0.3845745,17.7797039 0,17.7334778 C2.179257,19.1635969 4.768445,20 7.5478075,20 C16.6057405,20 21.5573165,12.3076923 21.5573165,5.6352474 C21.5573165,5.41567355 21.5530905,5.19609965 21.544638,4.9808595 C22.5067795,4.26868905 23.3421375,3.3802817 24,2.36764175" id="_Assets/twitter_icon" fill="#55ACEE"></path>
    </g>
</svg>